<svg xmlns="http://www.w3.org/2000/svg" width="381" height="531" viewBox="0 0 381 531"><g><g><g><path fill="#4c4c4c" d="M285.803 41.706c0 14.07-11.406 25.477-25.477 25.477-14.07 0-25.476-11.406-25.476-25.477 0-14.07 11.406-25.476 25.477-25.476 14.07 0 25.476 11.406 25.476 25.476z"/></g><g><g><text dominant-baseline="text-before-edge" style="font-kerning:normal" fill="#4c4c4c" font-family="'Roboto','Roboto-Bold'" font-size="30.82" transform="translate(293 23)"><tspan style="font-kerning:normal">Rabot</tspan></text></g></g><g><g><text dominant-baseline="text-before-edge" style="font-kerning:normal" fill="#fff" font-family="'Roboto','Roboto-Bold'" font-size="30.82" transform="translate(249 24)"><tspan style="font-kerning:normal">G</tspan></text></g></g><g><path fill="#4c4c4c" d="M292.376 14.793c0 8.17-6.623 14.793-14.793 14.793-8.17 0-14.793-6.623-14.793-14.793C262.79 6.623 269.413 0 277.583 0c8.17 0 14.793 6.623 14.793 14.793z"/></g><g><path fill="#4c4c4c" d="M252.724 62.052c0 5.446-4.416 9.862-9.862 9.862-5.447 0-9.862-4.416-9.862-9.862 0-5.447 4.415-9.862 9.862-9.862 5.446 0 9.862 4.415 9.862 9.862z"/></g></g><g><g><path fill="#4c4c4c" d="M288.266 465.578l7.306 14.474c.886 1.756 1.58 4.67 1.58 6.637v39.537a4.432 4.432 0 0 1-4.427 4.426h-25.542a4.431 4.431 0 0 1-4.426-4.426v-10.123l21.262-21.263a2.731 2.731 0 0 0 0-3.862l-1.29-1.29a2.731 2.731 0 0 0-3.862 0l-16.11 16.11V486.69c0-1.966.694-4.881 1.58-6.637l7.305-14.474v-3.335h-.402c-.667 0-1.208-.54-1.208-1.207v-4.829c0-.667.54-1.207 1.208-1.207h17.429c.666 0 1.207.54 1.207 1.207v4.83c0 .666-.54 1.206-1.207 1.206h-.403zm-.805-8.164h-15.014v2.415h15.014zm-13.405 8.451c0 .189-.044.375-.129.544l-4.595 9.103c.871.282 1.482.738 2.01 1.133.717.535 1.234.922 2.389.922 1.154 0 1.671-.387 2.388-.922.836-.626 1.877-1.404 3.834-1.404s2.998.778 3.835 1.403c.716.536 1.234.923 2.389.923 1.154 0 1.672-.387 2.388-.923.529-.395 1.14-.85 2.01-1.132l-4.594-9.103a1.208 1.208 0 0 1-.13-.544v-3.622h-11.795zm3.622 1.207a1.207 1.207 0 1 1 0-2.414h4.552a1.207 1.207 0 1 1 0 2.414zm-25.682 53.741a1.125 1.125 0 0 1-.044-.046l-9.632-9.632a1.092 1.092 0 0 1 0-1.545l1.012-1.012a1.092 1.092 0 0 1 1.545 0l8.904 8.905 26.112-26.112a1.092 1.092 0 0 1 1.545 0l.954.954a1.092 1.092 0 0 1 0 1.545l-27.898 27.897a1.092 1.092 0 0 1-1.544 0z"/></g><g><g><text dominant-baseline="text-before-edge" style="font-kerning:normal" fill="#4c4c4c" font-family="'Roboto','Roboto-Medium'" font-size="19.66" transform="translate(299 482)"><tspan style="font-kerning:normal">Список</tspan></text></g></g><g><g><text dominant-baseline="text-before-edge" style="font-kerning:normal" fill="#4c4c4c" font-family="'Roboto','Roboto-Medium'" font-size="19.66" transform="translate(299 498)"><tspan style="font-kerning:normal">покупок</tspan></text></g></g></g><g><g><g><path fill="#4c4c4c" d="M66.56 282.859h-.067l-4.999-13.409H57.19l7.217 17.779h4.073l7.217-17.779H71.56z"/></g><g><path fill="#4c4c4c" d="M94.798 278.353c0 5.43-3.973 9.27-9.502 9.27-5.53 0-9.436-3.84-9.436-9.27 0-5.463 3.907-9.303 9.436-9.303 5.562 0 9.502 3.84 9.502 9.303zm-4.073 0c0-3.377-2.218-5.694-5.43-5.694-3.21 0-5.396 2.317-5.396 5.694 0 3.311 2.218 5.662 5.397 5.662 3.244 0 5.43-2.35 5.43-5.662z"/></g><g><path fill="#4c4c4c" d="M97.58 287.225h4.04V261.5h-4.04z"/></g><g><path fill="#4c4c4c" d="M115.859 269.05c5.098 0 8.806 3.907 8.806 9.303 0 5.397-3.708 9.27-8.806 9.27-2.583 0-4.57-.827-5.894-2.284h-.066v9.105h-4.039v-25.03h3.278l.198 2.55h.067c1.29-1.821 3.509-2.914 6.422-2.914zm4.734 9.303c0-3.377-2.251-5.694-5.397-5.694-3.178 0-5.43 2.317-5.43 5.694 0 3.311 2.252 5.662 5.43 5.662 3.146 0 5.397-2.351 5.397-5.662z"/></g><g><path fill="#4c4c4c" d="M141.883 271.997l.231-2.55h3.245v17.812h-3.245l-.198-2.549h-.067c-1.29 1.82-3.542 2.913-6.422 2.913-5.099 0-8.807-3.873-8.807-9.27 0-5.396 3.708-9.303 8.807-9.303 2.913 0 5.098 1.093 6.39 2.913h.066zm-.398 6.323c0-3.377-2.218-5.694-5.396-5.694-3.212 0-5.397 2.317-5.397 5.694 0 3.31 2.218 5.662 5.397 5.662 3.211 0 5.396-2.351 5.396-5.662z"/></g><g><path fill="#4c4c4c" d="M161.642 269.45l-5.033 12.879h-.066l-4.966-12.879h-4.337l7.184 17.216-3.476 7.78h4.139l10.66-24.996z"/></g><g><path fill="#4c4c4c" d="M47.718 269.05c5.562 0 9.403 3.84 9.403 9.303 0 .53-.033 1.027-.1 1.523h-14.7c.299 2.35 2.384 4.337 5.298 4.337 2.715 0 4.171-1.092 5-2.516h4.204c-1.126 3.741-5.066 5.927-9.237 5.927-5.53 0-9.436-3.841-9.436-9.27 0-5.463 4.006-9.304 9.535-9.304zm5.231 7.747c-.232-2.615-2.317-4.337-5.264-4.337-2.913 0-5 1.821-5.397 4.337z"/></g></g><g><g><path fill="#4c4c4c" d="M21.862 280.543l-10.032 6.688h10.13c1.855 0 2.98-2.086 1.954-3.642l-2.052-3.079z"/></g><g><path fill="#4c4c4c" d="M31.497 269.713a2.376 2.376 0 0 1-.662 3.245l-21.388 14.27L.376 273.62a2.376 2.376 0 0 1 .662-3.245l19.467-12.978c.397-.265.86-.397 1.291-.397.762 0 1.49.364 1.954 1.026l7.78 11.687zm-8.542-.629a3.109 3.109 0 0 0-3.112-3.112 3.108 3.108 0 0 0-3.112 3.112 3.108 3.108 0 0 0 3.112 3.112 3.109 3.109 0 0 0 3.112-3.112z"/></g></g></g><g><g><g><g><text dominant-baseline="text-before-edge" style="font-kerning:normal" fill="#4c4c4c" font-family="'Montserrat','Montserrat-SemiBold'" font-size="32.16" transform="translate(234 379)"><tspan style="font-kerning:normal">s</tspan></text></g></g><g><path fill="#4c4c4c" d="M157.369 406.063h-.062L152.66 393.6h-4l6.709 16.525h3.785l6.708-16.525h-3.847z"/></g><g><path fill="#4c4c4c" d="M183.622 401.877c0 5.047-3.693 8.617-8.832 8.617-5.139 0-8.77-3.57-8.77-8.617 0-5.077 3.631-8.647 8.77-8.647 5.17 0 8.832 3.57 8.832 8.647zm-3.785 0c0-3.139-2.062-5.293-5.047-5.293s-5.016 2.154-5.016 5.293c0 3.078 2.062 5.262 5.016 5.262 3.016 0 5.047-2.184 5.047-5.262z"/></g><g><path fill="#4c4c4c" d="M185.93 410.153h4.064V386.22h-4.064z"/></g><g><path fill="#4c4c4c" d="M207.6 410.16h4.064V393H207.6z"/></g><g><path fill="#4c4c4c" d="M211.664 388.252a2.032 2.032 0 1 1-4.064 0 2.032 2.032 0 0 1 4.064 0z"/></g><g><path fill="#4c4c4c" d="M195.577 403.594v.137c0 4.513 2.895 6.674 7.048 6.674.51 0 .996-.044 1.455-.127l.01-.002-.01-3.002a4.847 4.847 0 0 1-.916.085c-2.589 0-4.336-.86-4.336-3.628l-.007-2.926.046-4.665v-.541h4.655v-2.649h-4.655v-4.3h-3.329l.011 4.3h-2.999v2.649h3.006z"/></g><g><path fill="#4c4c4c" d="M224.163 392.62c4.74 0 8.186 3.631 8.186 8.647s-3.446 8.617-8.186 8.617c-2.4 0-4.246-.77-5.477-2.124h-.062v8.463h-3.754v-23.265h3.047l.184 2.37h.062c1.2-1.692 3.262-2.708 5.97-2.708zm4.401 8.647c0-3.139-2.093-5.293-5.016-5.293-2.954 0-5.047 2.154-5.047 5.293 0 3.077 2.093 5.262 5.047 5.262 2.923 0 5.016-2.184 5.016-5.262z"/></g><g><path fill="#4c4c4c" d="M139.863 393.23c5.17 0 8.74 3.57 8.74 8.647 0 .493-.03.954-.092 1.416h-13.664c.277 2.185 2.216 4.031 4.924 4.031 2.524 0 3.877-1.015 4.647-2.339h3.908c-1.046 3.478-4.708 5.509-8.586 5.509-5.139 0-8.77-3.57-8.77-8.617 0-5.077 3.724-8.647 8.863-8.647zm4.863 7.2c-.216-2.43-2.155-4.03-4.893-4.03-2.708 0-4.647 1.692-5.016 4.03z"/></g></g><g><path fill="#4c4c4c" d="M120.943 380.67c1.045 0 1.892.847 1.892 1.892v27.05a1.892 1.892 0 0 1-1.892 1.893H93.892A1.892 1.892 0 0 1 92 409.613v-27.051c0-1.045.847-1.892 1.892-1.892zm-4.162 17.299v-.878a.877.877 0 0 0-.879-.879h-10.539a.877.877 0 0 0-.878.879v7.904a3.513 3.513 0 0 0 3.513 3.513h5.27a3.51 3.51 0 0 0 3.388-2.634h1.003a2.635 2.635 0 0 0 2.635-2.635v-2.635a2.635 2.635 0 0 0-2.635-2.635zm1.756 5.27a.879.879 0 0 1-.878.878h-.878v-4.391h.878c.485 0 .878.393.878.878z"/></g></g><g><g><g><path fill="#4c4c4c" d="M83.197 133.015a4.146 4.146 0 0 0 .707-2.725 3.817 3.817 0 0 1-1.03 3.62 3.847 3.847 0 0 1-3.94.93c.64.099 1.3.056 1.93-.13a4.306 4.306 0 0 0 2.332-1.695zM70.12 144.38c.22.1.457.166.701.192l.141.015-.458 4.205v.009a1.614 1.614 0 0 0-.004.038 5.737 5.737 0 0 1-.38-2.061v-.972c.008-.052.016-.105.022-.158a1.047 1.047 0 0 0-.022-.375zm1.335 6.079a1.638 1.638 0 0 0 .931.124c1.758-.283 6.012-1.35 7.671-5.149.47-1.077.677-2.36.619-3.818a20.61 20.61 0 0 0 2.222-1.935c2.188-2.177 4.224-5.362 5.584-8.74.579-1.436 1.003-2.824 1.263-4.1h9.321a5.751 5.751 0 0 1 5.752 5.751v2.684H96.67a4.505 4.505 0 1 0 0 9.01h8.148v2.492a5.751 5.751 0 0 1-5.751 5.75H75.87a5.739 5.739 0 0 1-4.42-2.071zm33.362-12.5v3.643H96.67a1.821 1.821 0 0 1 0-3.643z"/></g><g><path fill="#4c4c4c" d="M80.859 134.716a4.407 4.407 0 0 1-1.929.13 3.847 3.847 0 0 0 3.94-.93 3.816 3.816 0 0 0 1.03-3.62c.09.961-.16 1.923-.708 2.726a4.307 4.307 0 0 1-2.333 1.694zm-.806 10.724a7.33 7.33 0 0 1-.32.646c.174-.104.345-.218.514-.343l11.513-8.523c4.07-3.013 2.478-9.172-2.05-10.22a24.095 24.095 0 0 1-1.233 3.948c-1.36 3.377-3.396 6.562-5.584 8.74a20.609 20.609 0 0 1-2.222 1.933c.058 1.46-.15 2.742-.618 3.819z"/></g><g><path fill="#4c4c4c" d="M80.781 134.74a4.408 4.408 0 0 1-1.847.107 3.847 3.847 0 0 0 2.116.092zM70.12 145.28c.03.12.037.248.022.374a3.966 3.966 0 0 1-.022.158v.972c0 .726.135 1.421.38 2.061l.004-.038v-.009l.458-4.204-.14-.016a2.243 2.243 0 0 1-.702-.192zm1.33 5.183a5.74 5.74 0 0 0 4.421 2.072h11.513c5.545 0 7.878-7.074 3.422-10.373l-6.114-4.527a20.773 20.773 0 0 1-4.017 3.987c.059 1.459-.149 2.741-.618 3.818-1.659 3.8-5.913 4.866-7.67 5.15a1.636 1.636 0 0 1-.931-.124z"/></g><g><g><path fill="#4c4c4c" d="M78.426 127.54a1.747 1.747 0 1 0 .002 3.494 1.747 1.747 0 0 0-.002-3.494z"/></g><g><path fill="#4c4c4c" d="M86.755 129.03c-1.36 3.378-3.396 6.563-5.584 8.74a20.598 20.598 0 0 1-2.222 1.934c.058 1.459-.15 2.741-.619 3.818-1.658 3.8-5.913 4.866-7.67 5.15a1.634 1.634 0 0 1-1.882-1.782v-.01l.457-4.204-.14-.015a2.243 2.243 0 0 1-1.356-.65l-2.055-2.055a2.25 2.25 0 0 1-.648-1.356l-.015-.148-4.21.46h-.009a1.637 1.637 0 0 1-1.78-1.899c.288-1.747 1.367-6.004 5.146-7.667 1.085-.473 2.373-.682 3.834-.616a20.99 20.99 0 0 1 1.934-2.214c2.17-2.175 5.382-4.204 8.81-5.579 3.4-1.361 6.468-1.868 8.419-1.392a1.335 1.335 0 0 1 .99 1.007c.464 2.025-.046 5.117-1.4 8.478zm-4.765 1.724a3.816 3.816 0 0 0-.843-4.193 3.847 3.847 0 1 0 0 5.438c.36-.355.647-.779.842-1.245z"/></g><g><path fill="#4c4c4c" d="M66.838 142.993c-.254-.032-.51.03-.72.175-.419.286-.839.568-1.263.844-.858.558-1.884-.422-1.375-1.31l.796-1.374a1.047 1.047 0 0 0-.993-1.63 4.01 4.01 0 0 0-2.332 1.143c-.24.24-.968.969-1.36 3.748a23.427 23.427 0 0 0-.21 2.406 1.047 1.047 0 0 0 1.047 1.074h.026c.806-.028 1.61-.098 2.409-.209 2.78-.393 3.509-1.122 3.748-1.361a3.96 3.96 0 0 0 1.138-2.34 1.047 1.047 0 0 0-.911-1.166z"/></g></g></g><g><g><path fill="#4c4c4c" d="M204.434 140.022c0 4.589-3.357 7.835-8.03 7.835-4.672 0-7.974-3.246-7.974-7.835 0-4.616 3.302-7.862 7.974-7.862 4.7 0 8.03 3.246 8.03 7.862zm-3.441 0c0-2.854-1.875-4.812-4.589-4.812-2.714 0-4.56 1.958-4.56 4.812 0 2.798 1.874 4.785 4.56 4.785 2.742 0 4.589-1.987 4.589-4.785z"/></g><g><g><path fill="#4c4c4c" d="M246.44 141.12h3.373v-15.18h-3.373z"/></g><g><path fill="#4c4c4c" d="M253.753 147.859c-4.309 0-7.313-2.184-7.313-6.744 0-2.933 1.38-6.421 3.373-7.785v7.785c0 2.798 1.813 3.666 4.5 3.666.33 0 .647-.03.95-.086l.01 3.034-.01.002c-.476.084-.98.128-1.51.128z"/></g><g><path fill="#4c4c4c" d="M243.41 132.974h11.118v-2.684H243.41z"/></g></g><g><path fill="#4c4c4c" d="M177.593 147.66c-4.31 0-7.443-3.301-7.443-7.862 0-4.56 3.134-7.834 7.442-7.834 2.183 0 3.862.7 4.98 1.93h.057V126.2h3.413v21.153h-2.77l-.168-2.155h-.055c-1.092 1.539-2.966 2.462-5.429 2.462zm-4.002-7.862c0 2.854 1.903 4.813 4.561 4.813 2.686 0 4.589-1.959 4.589-4.813 0-2.798-1.903-4.784-4.589-4.784-2.658 0-4.56 1.986-4.56 4.784z"/></g><g><path fill="#4c4c4c" d="M210.151 147.425V139.844c0-2.809 1.903-4.802 4.589-4.802 2.658 0 4.56 1.993 4.56 4.802v7.581h3.441v-7.581c0-4.578-3.133-7.863-7.442-7.863-2.182 0-3.86.702-4.98 1.937h-.056l-.15-1.753h-3.263v15.26z"/></g><g><path fill="#4c4c4c" d="M238.059 134.65l.195-2.154h2.742v15.053h-2.742l-.167-2.155h-.056c-1.092 1.54-2.994 2.463-5.428 2.463-4.31 0-7.443-3.274-7.443-7.835 0-4.56 3.134-7.862 7.443-7.862 2.462 0 4.308.923 5.4 2.462h.056zm-.336 5.344c0-2.854-1.875-4.812-4.56-4.812-2.715 0-4.562 1.958-4.562 4.812 0 2.798 1.875 4.785 4.561 4.785 2.714 0 4.56-1.987 4.56-4.785z"/></g><g><path fill="#4c4c4c" d="M264.906 132.16c4.7 0 7.946 3.246 7.946 7.862 0 .448-.028.868-.084 1.287h-12.423c.252 1.987 2.015 3.666 4.477 3.666 2.294 0 3.526-.924 4.225-2.127h3.553c-.95 3.162-4.28 5.008-7.806 5.008-4.672 0-7.974-3.245-7.974-7.834 0-4.616 3.386-7.862 8.058-7.862zm4.42 6.547c-.195-2.21-1.958-3.665-4.448-3.665-2.462 0-4.225 1.539-4.56 3.665z"/></g><g><path fill="#4c4c4c" d="M163.09 147.46h3.413v-21.74h-3.413z"/></g><g><path fill="#4c4c4c" d="M160.734 139.962c0 4.589-3.357 7.835-8.03 7.835-4.672 0-7.974-3.246-7.974-7.835 0-4.616 3.302-7.862 7.974-7.862 4.7 0 8.03 3.246 8.03 7.862zm-3.441 0c0-2.854-1.875-4.812-4.589-4.812-2.714 0-4.56 1.958-4.56 4.812 0 2.798 1.874 4.785 4.56 4.785 2.742 0 4.589-1.987 4.589-4.785z"/></g><g><path fill="#4c4c4c" d="M136.868 143.772h-.056l-4.225-11.332h-3.637l6.1 15.025h3.441l6.1-15.025h-3.498z"/></g><g><path fill="#4c4c4c" d="M120.956 132.1c4.7 0 7.946 3.246 7.946 7.862 0 .448-.028.868-.084 1.287h-12.423c.252 1.987 2.015 3.666 4.477 3.666 2.295 0 3.526-.924 4.225-2.127h3.554c-.952 3.162-4.281 5.008-7.807 5.008-4.672 0-7.974-3.245-7.974-7.834 0-4.616 3.386-7.862 8.058-7.862zm4.42 6.547c-.195-2.21-1.958-3.665-4.448-3.665-2.462 0-4.225 1.539-4.56 3.665z"/></g></g></g><g><path fill="#4c4c4c" d="M374.38 263.932l-8.665 8.665c-.602.602-.963 1.324-.963 2.167-.241 6.86-2.407 12.637-6.5 16.609-4.212 4.212-10.35 6.5-17.812 6.5h-24.192V273.56c0-7.462 2.287-13.6 6.5-17.813 4.212-4.212 10.35-6.499 17.812-6.499h12.878l-32.135 32.015v11.434h11.434l45.976-45.976c5.055-4.935 1.445-13.721-5.777-13.721H340.56c-5.777 0-11.313.963-16.248 2.889-5.055 1.925-9.388 4.694-13.119 8.424-3.61 3.611-6.5 8.064-8.425 13.12-1.805 4.814-2.768 10.23-2.768 16.127v32.376a8.065 8.065 0 0 0 8.064 8.064h32.376c5.777 0 11.314-.963 16.248-2.889a35.39 35.39 0 0 0 13.119-8.304c3.61-3.61 6.5-8.064 8.425-13.119 1.926-4.935 2.888-10.35 2.888-16.248v-6.74c-.12-3.49-4.212-5.176-6.74-2.768z"/></g></g></svg>